<svg width="1200" height="300" viewBox="0 0 1200 300" fill="none" xmlns="http://www.w3.org/2000/svg">
  <defs>
    <linearGradient id="bgGrad" x1="0%" y1="0%" x2="100%" y2="100%">
      <stop offset="0%" stop-color="#0f172a" />
      <stop offset="52%" stop-color="#1e1b4b" />
      <stop offset="100%" stop-color="#311042" />
    </linearGradient>
    <linearGradient id="textGrad" x1="0%" y1="0%" x2="100%" y2="0%">
      <stop offset="0%" stop-color="#e0f2fe" />
      <stop offset="45%" stop-color="#93c5fd" />
      <stop offset="100%" stop-color="#c4b5fd" />
    </linearGradient>
    <linearGradient id="flowA" x1="170" y1="98" x2="1030" y2="98" gradientUnits="userSpaceOnUse">
      <stop offset="0%" stop-color="#38bdf8" stop-opacity="0" />
      <stop offset="35%" stop-color="#60a5fa" stop-opacity="0.12" />
      <stop offset="65%" stop-color="#a78bfa" stop-opacity="0.14" />
      <stop offset="100%" stop-color="#c084fc" stop-opacity="0" />
    </linearGradient>
    <linearGradient id="flowB" x1="130" y1="144" x2="1070" y2="144" gradientUnits="userSpaceOnUse">
      <stop offset="0%" stop-color="#38bdf8" stop-opacity="0" />
      <stop offset="40%" stop-color="#7dd3fc" stop-opacity="0.1" />
      <stop offset="72%" stop-color="#c4b5fd" stop-opacity="0.12" />
      <stop offset="100%" stop-color="#d8b4fe" stop-opacity="0" />
    </linearGradient>
    <linearGradient id="flowC" x1="200" y1="186" x2="1000" y2="186" gradientUnits="userSpaceOnUse">
      <stop offset="0%" stop-color="#60a5fa" stop-opacity="0" />
      <stop offset="38%" stop-color="#60a5fa" stop-opacity="0.08" />
      <stop offset="70%" stop-color="#a78bfa" stop-opacity="0.11" />
      <stop offset="100%" stop-color="#c084fc" stop-opacity="0" />
    </linearGradient>
    <filter id="softFlow" x="-10%" y="-20%" width="120%" height="140%">
      <feGaussianBlur stdDeviation="2.2" />
    </filter>
    <filter id="ambientBlur" x="-20%" y="-20%" width="140%" height="140%">
      <feGaussianBlur stdDeviation="34" />
    </filter>
  </defs>

  <rect width="1200" height="300" rx="16" fill="url(#bgGrad)" />

  <ellipse cx="170" cy="72" rx="170" ry="110" fill="#38bdf8" fill-opacity="0.06" filter="url(#ambientBlur)" />
  <ellipse cx="1010" cy="232" rx="220" ry="126" fill="#a78bfa" fill-opacity="0.08" filter="url(#ambientBlur)" />

  <g filter="url(#softFlow)">
    <path d="M108 108C226 78 334 73 456 88C560 100 659 118 770 115C879 113 967 91 1092 104" stroke="url(#flowA)" stroke-width="2.2" stroke-linecap="round" />
    <path d="M82 146C192 160 315 165 437 153C552 141 645 122 756 124C879 126 980 148 1118 166" stroke="url(#flowB)" stroke-width="1.7" stroke-linecap="round" />
    <path d="M148 188C257 169 360 165 468 173C592 182 711 196 831 190C924 186 1005 172 1070 154" stroke="url(#flowC)" stroke-width="1.9" stroke-linecap="round" />
    <path d="M256 96C310 124 361 136 432 140" stroke="#93c5fd" stroke-opacity="0.05" stroke-width="1.2" stroke-linecap="round" />
    <path d="M770 154C836 148 896 127 956 92" stroke="#c4b5fd" stroke-opacity="0.06" stroke-width="1.2" stroke-linecap="round" />
  </g>

  <path d="M0 220C120 190 210 180 310 192C410 204 495 239 604 239C721 239 793 184 898 174C1020 162 1101 196 1200 218V300H0V220Z" fill="#FFFFFF0D" />

  <g text-anchor="middle">
    <text x="600" y="150" font-family="'Segoe UI', Arial, sans-serif" font-size="48" font-weight="800" letter-spacing="-0.6" fill="url(#textGrad)">REET GINOTRA</text>
    <text x="600" y="196" font-family="'Segoe UI', Arial, sans-serif" font-size="19" font-weight="600" fill="#cbd5ff">Full Stack Developer | AI | Product</text>
  </g>
</svg>
